ffmpeg started on 2025-05-28 at 21:33:16
Report written to "D:\Convert\FFMetrics\reports\psnr_report-6.txt"
Log level: 32
Command line:
ffmpeg -hide_banner -nostdin -i "G:\\\xc0\xed\xe8\xec\xe5\\\xce\xed\xe3\xee\xe8\xed\xe3\xe8\\!_36_\xce\xf1\xe5\xed\xfc_2024\\JamClub\\\xcb\xfe\xe1\xee\xe2\xfc \xcc\xf3\xf0\xe0\xe8\\JamClub_Murai_no_Koi_07_1080p_HEVC.mkv" -i "G:\\\xc0\xed\xe8\xec\xe5\\\xce\xed\xe3\xee\xe8\xed\xe3\xe8\\!_36_\xce\xf1\xe5\xed\xfc_2024\\JamClub\\\xcb\xfe\xe1\xee\xe2\xfc \xcc\xf3\xf0\xe0\xe8\\JamClub_Murai_no_Koi_07_1080p.mp4" -lavfi "[0:v]settb=AVTB,setpts=PTS-STARTPTS,format=pix_fmts=yuv420p10,fps=24000/1001,scale=1920:1080:flags=bicubic[main];[1:v]settb=AVTB,setpts=PTS-STARTPTS,format=pix_fmts=yuv420p,fps=24000/1001,scale=1920:1080:flags=bicubic[ref];[main][ref]psnr=eof_action=endall:stats_file='D\\:/Convert/FFMetrics/logs/psnr_logfile-6.txt'" -f null -
Input #0, matroska,webm, from 'G:\Аниме\Онгоинги\!_36_Осень_2024\JamClub\Любовь Мураи\JamClub_Murai_no_Koi_07_1080p_HEVC.mkv':
  Metadata:
    COMPATIBLE_BRANDS: isomiso2avc1mp41
    MAJOR_BRAND     : isom
    MINOR_VERSION   : 512
    ENCODER         : Lavf61.7.100
  Duration: 00:24:04.21, start: -0.021000, bitrate: 1444 kb/s
  Stream #0:0: Video: hevc (Main 10), yuv420p10le(tv, bt709, progressive), 1920x1080 [SAR 1:1 DAR 16:9], 23.98 fps, 23.98 tbr, 1k tbn (default)
      Metadata:
        HANDLER_NAME    : VideoHandler
        VENDOR_ID       : [0][0][0][0]
        ENCODER         : Lavc61.19.100 libx265
        BPS             : 1245669
        DURATION        : 00:24:04.108708333
        NUMBER_OF_FRAMES: 34624
        NUMBER_OF_BYTES : 224860153
        _STATISTICS_WRITING_APP: mkvpropedit v66.0.0 ('Josie') 64-bit
        _STATISTICS_WRITING_DATE_UTC: 2025-05-28 12:58:48
        _STATISTICS_TAGS: BPS DURATION NUMBER_OF_FRAMES NUMBER_OF_BYTES
  Stream #0:1(eng): Audio: aac (LC), 48000 Hz, stereo, fltp (default)
      Metadata:
        HANDLER_NAME    : SoundHandler
        VENDOR_ID       : [0][0][0][0]
        ENCODER         : Lavc61.19.100 aac
        BPS             : 194407
        DURATION        : 00:24:04.184000000
        NUMBER_OF_FRAMES: 67697
        NUMBER_OF_BYTES : 35095031
        _STATISTICS_WRITING_APP: mkvpropedit v66.0.0 ('Josie') 64-bit
        _STATISTICS_WRITING_DATE_UTC: 2025-05-28 12:58:48
        _STATISTICS_TAGS: BPS DURATION NUMBER_OF_FRAMES NUMBER_OF_BYTES
Input #1, mov,mp4,m4a,3gp,3g2,mj2, from 'G:\Аниме\Онгоинги\!_36_Осень_2024\JamClub\Любовь Мураи\JamClub_Murai_no_Koi_07_1080p.mp4':
  Metadata:
    major_brand     : isom
    minor_version   : 512
    compatible_brands: isomiso2avc1mp41
    encoder         : Lavf60.16.100
  Duration: 00:24:04.18, start: 0.000000, bitrate: 4185 kb/s
  Stream #1:0[0x1](und): Video: h264 (High) (avc1 / 0x31637661), yuv420p(tv, bt709, progressive), 1920x1080 [SAR 1:1 DAR 16:9], 3987 kb/s, 23.98 fps, 23.98 tbr, 90k tbn (default)
      Metadata:
        handler_name    : VideoHandler
        vendor_id       : [0][0][0][0]
  Stream #1:1[0x2](eng): Audio: aac (LC) (mp4a / 0x6134706D), 48000 Hz, stereo, fltp, 191 kb/s (default)
      Metadata:
        handler_name    : SoundHandler
        vendor_id       : [0][0][0][0]
Stream mapping:
  Stream #0:0 (hevc) -> settb:default
  Stream #1:0 (h264) -> settb:default
  psnr:default -> Stream #0:0 (wrapped_avframe)
  Stream #0:1 -> #0:1 (aac (native) -> pcm_s16le (native))
Output #0, null, to 'pipe:':
  Metadata:
    COMPATIBLE_BRANDS: isomiso2avc1mp41
    MAJOR_BRAND     : isom
    MINOR_VERSION   : 512
    encoder         : Lavf61.7.100
  Stream #0:0: Video: wrapped_avframe, yuv420p10le(tv, bt709, progressive), 1920x1080 [SAR 1:1 DAR 16:9], q=2-31, 200 kb/s, 23.98 fps, 23.98 tbn
      Metadata:
        encoder         : Lavc61.19.100 wrapped_avframe
  Stream #0:1(eng): Audio: pcm_s16le, 48000 Hz, stereo, s16, 1536 kb/s (default)
      Metadata:
        HANDLER_NAME    : SoundHandler
        VENDOR_ID       : [0][0][0][0]
        _STATISTICS_TAGS: BPS DURATION NUMBER_OF_FRAMES NUMBER_OF_BYTES
        BPS             : 194407
        DURATION        : 00:24:04.184000000
        NUMBER_OF_FRAMES: 67697
        NUMBER_OF_BYTES : 35095031
        _STATISTICS_WRITING_APP: mkvpropedit v66.0.0 ('Josie') 64-bit
        _STATISTICS_WRITING_DATE_UTC: 2025-05-28 12:58:48
        encoder         : Lavc61.19.100 pcm_s16le
frame=  123 fps=0.0 q=-0.0 size=N/A time=00:00:05.13 bitrate=N/A speed=9.83x    frame=  289 fps=280 q=-0.0 size=N/A time=00:00:12.05 bitrate=N/A speed=11.7x    frame=  504 fps=324 q=-0.0 size=N/A time=00:00:21.02 bitrate=N/A speed=13.5x    frame=  692 fps=333 q=-0.0 size=N/A time=00:00:28.86 bitrate=N/A speed=13.9x    frame=  852 fps=330 q=-0.0 size=N/A time=00:00:35.53 bitrate=N/A speed=13.8x    frame= 1001 fps=323 q=-0.0 size=N/A time=00:00:41.75 bitrate=N/A speed=13.5x    frame= 1163 fps=322 q=-0.0 size=N/A time=00:00:48.50 bitrate=N/A speed=13.4x    frame= 1387 fps=335 q=-0.0 size=N/A time=00:00:57.84 bitrate=N/A speed=  14x    frame= 1530 fps=329 q=-0.0 size=N/A time=00:01:03.81 bitrate=N/A speed=13.7x    frame= 1748 fps=338 q=-0.0 size=N/A time=00:01:12.90 bitrate=N/A speed=14.1x    frame= 1919 fps=338 q=-0.0 size=N/A time=00:01:20.03 bitrate=N/A speed=14.1x    frame= 2057 fps=332 q=-0.0 size=N/A time=00:01:25.79 bitrate=N/A speed=13.8x    frame= 2217 fps=330 q=-0.0 size=N/A time=00:01:32.46 bitrate=N/A speed=13.8x    frame= 2407 fps=333 q=-0.0 size=N/A time=00:01:40.39 bitrate=N/A speed=13.9x    frame= 2616 fps=338 q=-0.0 size=N/A time=00:01:49.10 bitrate=N/A speed=14.1x    frame= 2861 fps=347 q=-0.0 size=N/A time=00:01:59.32 bitrate=N/A speed=14.5x    frame= 3112 fps=355 q=-0.0 size=N/A time=00:02:09.79 bitrate=N/A speed=14.8x    frame= 3373 fps=363 q=-0.0 size=N/A time=00:02:20.68 bitrate=N/A speed=15.1x    frame= 3640 fps=371 q=-0.0 size=N/A time=00:02:31.81 bitrate=N/A speed=15.5x    frame= 3865 fps=374 q=-0.0 size=N/A time=00:02:41.20 bitrate=N/A speed=15.6x    frame= 4130 fps=380 q=-0.0 size=N/A time=00:02:52.25 bitrate=N/A speed=15.9x    frame= 4384 fps=386 q=-0.0 size=N/A time=00:03:02.84 bitrate=N/A speed=16.1x    frame= 4631 fps=390 q=-0.0 size=N/A time=00:03:13.15 bitrate=N/A speed=16.2x    frame= 4886 fps=394 q=-0.0 size=N/A time=00:03:23.78 bitrate=N/A speed=16.4x    frame= 5131 fps=397 q=-0.0 size=N/A time=00:03:34.00 bitrate=N/A speed=16.6x    frame= 5383 fps=401 q=-0.0 size=N/A time=00:03:44.51 bitrate=N/A speed=16.7x    frame= 5636 fps=404 q=-0.0 size=N/A time=00:03:55.06 bitrate=N/A speed=16.9x    frame= 5892 fps=407 q=-0.0 size=N/A time=00:04:05.74 bitrate=N/A speed=  17x    frame= 6163 fps=412 q=-0.0 size=N/A time=00:04:17.04 bitrate=N/A speed=17.2x    frame= 6411 fps=414 q=-0.0 size=N/A time=00:04:27.39 bitrate=N/A speed=17.3x    frame= 6674 fps=417 q=-0.0 size=N/A time=00:04:38.36 bitrate=N/A speed=17.4x    frame= 6949 fps=421 q=-0.0 size=N/A time=00:04:49.83 bitrate=N/A speed=17.5x    frame= 7216 fps=424 q=-0.0 size=N/A time=00:05:00.96 bitrate=N/A speed=17.7x    frame= 7467 fps=425 q=-0.0 size=N/A time=00:05:11.43 bitrate=N/A speed=17.7x    frame= 7737 fps=428 q=-0.0 size=N/A time=00:05:22.69 bitrate=N/A speed=17.9x    frame= 8005 fps=431 q=-0.0 size=N/A time=00:05:33.87 bitrate=N/A speed=  18x    frame= 8263 fps=433 q=-0.0 size=N/A time=00:05:44.63 bitrate=N/A speed=  18x    frame= 8510 fps=434 q=-0.0 size=N/A time=00:05:54.93 bitrate=N/A speed=18.1x    frame= 8773 fps=436 q=-0.0 size=N/A time=00:06:05.90 bitrate=N/A speed=18.2x    frame= 9031 fps=437 q=-0.0 size=N/A time=00:06:16.66 bitrate=N/A speed=18.2x    frame= 9258 fps=437 q=-0.0 size=N/A time=00:06:26.13 bitrate=N/A speed=18.2x    frame= 9465 fps=437 q=-0.0 size=N/A time=00:06:34.76 bitrate=N/A speed=18.2x    frame= 9705 fps=437 q=-0.0 size=N/A time=00:06:44.77 bitrate=N/A speed=18.2x    frame= 9979 fps=439 q=-0.0 size=N/A time=00:06:56.20 bitrate=N/A speed=18.3x    frame=10190 fps=439 q=-0.0 size=N/A time=00:07:05.00 bitrate=N/A speed=18.3x    frame=10415 fps=439 q=-0.0 size=N/A time=00:07:14.39 bitrate=N/A speed=18.3x    frame=10627 fps=438 q=-0.0 size=N/A time=00:07:23.23 bitrate=N/A speed=18.3x    frame=10868 fps=439 q=-0.0 size=N/A time=00:07:33.28 bitrate=N/A speed=18.3x    frame=11081 fps=438 q=-0.0 size=N/A time=00:07:42.17 bitrate=N/A speed=18.3x    frame=11337 fps=439 q=-0.0 size=N/A time=00:07:52.84 bitrate=N/A speed=18.3x    frame=11546 fps=439 q=-0.0 size=N/A time=00:08:01.56 bitrate=N/A speed=18.3x    frame=11774 fps=439 q=-0.0 size=N/A time=00:08:11.07 bitrate=N/A speed=18.3x    frame=12007 fps=439 q=-0.0 size=N/A time=00:08:20.79 bitrate=N/A speed=18.3x    frame=12247 fps=439 q=-0.0 size=N/A time=00:08:30.80 bitrate=N/A speed=18.3x    frame=12467 fps=439 q=-0.0 size=N/A time=00:08:39.97 bitrate=N/A speed=18.3x    frame=12727 fps=440 q=-0.0 size=N/A time=00:08:50.82 bitrate=N/A speed=18.4x    frame=13016 fps=442 q=-0.0 size=N/A time=00:09:02.87 bitrate=N/A speed=18.5x    frame=13215 fps=442 q=-0.0 size=N/A time=00:09:11.17 bitrate=N/A speed=18.4x    frame=13461 fps=442 q=-0.0 size=N/A time=00:09:21.43 bitrate=N/A speed=18.4x    frame=13727 fps=443 q=-0.0 size=N/A time=00:09:32.53 bitrate=N/A speed=18.5x    frame=13979 fps=444 q=-0.0 size=N/A time=00:09:43.04 bitrate=N/A speed=18.5x    frame=14234 fps=445 q=-0.0 size=N/A time=00:09:53.67 bitrate=N/A speed=18.6x    frame=14490 fps=446 q=-0.0 size=N/A time=00:10:04.35 bitrate=N/A speed=18.6x    frame=14727 fps=446 q=-0.0 size=N/A time=00:10:14.23 bitrate=N/A speed=18.6x    frame=14971 fps=446 q=-0.0 size=N/A time=00:10:24.41 bitrate=N/A speed=18.6x    frame=15218 fps=447 q=-0.0 size=N/A time=00:10:34.71 bitrate=N/A speed=18.6x    frame=15466 fps=447 q=-0.0 size=N/A time=00:10:45.06 bitrate=N/A speed=18.7x    frame=15702 fps=448 q=-0.0 size=N/A time=00:10:54.90 bitrate=N/A speed=18.7x    frame=15940 fps=448 q=-0.0 size=N/A time=00:11:04.83 bitrate=N/A speed=18.7x    frame=16189 fps=448 q=-0.0 size=N/A time=00:11:15.21 bitrate=N/A speed=18.7x    frame=16462 fps=449 q=-0.0 size=N/A time=00:11:26.60 bitrate=N/A speed=18.7x    frame=16727 fps=450 q=-0.0 size=N/A time=00:11:37.65 bitrate=N/A speed=18.8x    frame=16972 fps=451 q=-0.0 size=N/A time=00:11:47.87 bitrate=N/A speed=18.8x    frame=17225 fps=451 q=-0.0 size=N/A time=00:11:58.42 bitrate=N/A speed=18.8x    frame=17486 fps=452 q=-0.0 size=N/A time=00:12:09.31 bitrate=N/A speed=18.8x    frame=17769 fps=453 q=-0.0 size=N/A time=00:12:21.11 bitrate=N/A speed=18.9x    frame=18033 fps=454 q=-0.0 size=N/A time=00:12:32.12 bitrate=N/A speed=18.9x    frame=18273 fps=454 q=-0.0 size=N/A time=00:12:42.13 bitrate=N/A speed=18.9x    frame=18469 fps=453 q=-0.0 size=N/A time=00:12:50.31 bitrate=N/A speed=18.9x    frame=18739 fps=454 q=-0.0 size=N/A time=00:13:01.57 bitrate=N/A speed=18.9x    frame=19006 fps=455 q=-0.0 size=N/A time=00:13:12.70 bitrate=N/A speed=  19x    frame=19258 fps=455 q=-0.0 size=N/A time=00:13:23.21 bitrate=N/A speed=  19x    frame=19509 fps=456 q=-0.0 size=N/A time=00:13:33.68 bitrate=N/A speed=  19x    frame=19773 fps=456 q=-0.0 size=N/A time=00:13:44.69 bitrate=N/A speed=  19x    frame=20044 fps=457 q=-0.0 size=N/A time=00:13:56.00 bitrate=N/A speed=19.1x    frame=20319 fps=458 q=-0.0 size=N/A time=00:14:07.47 bitrate=N/A speed=19.1x    frame=20569 fps=458 q=-0.0 size=N/A time=00:14:17.89 bitrate=N/A speed=19.1x    frame=20783 fps=458 q=-0.0 size=N/A time=00:14:26.82 bitrate=N/A speed=19.1x    frame=21043 fps=458 q=-0.0 size=N/A time=00:14:37.66 bitrate=N/A speed=19.1x    frame=21283 fps=458 q=-0.0 size=N/A time=00:14:47.67 bitrate=N/A speed=19.1x    frame=21533 fps=459 q=-0.0 size=N/A time=00:14:58.10 bitrate=N/A speed=19.1x    frame=21778 fps=459 q=-0.0 size=N/A time=00:15:08.32 bitrate=N/A speed=19.1x    frame=22014 fps=459 q=-0.0 size=N/A time=00:15:18.16 bitrate=N/A speed=19.1x    frame=22275 fps=459 q=-0.0 size=N/A time=00:15:29.05 bitrate=N/A speed=19.2x    frame=22515 fps=459 q=-0.0 size=N/A time=00:15:39.06 bitrate=N/A speed=19.2x    frame=22780 fps=460 q=-0.0 size=N/A time=00:15:50.11 bitrate=N/A speed=19.2x    frame=23015 fps=460 q=-0.0 size=N/A time=00:15:59.91 bitrate=N/A speed=19.2x    frame=23260 fps=460 q=-0.0 size=N/A time=00:16:10.13 bitrate=N/A speed=19.2x    frame=23506 fps=460 q=-0.0 size=N/A time=00:16:20.39 bitrate=N/A speed=19.2x    frame=23738 fps=460 q=-0.0 size=N/A time=00:16:30.07 bitrate=N/A speed=19.2x    frame=23976 fps=460 q=-0.0 size=N/A time=00:16:39.99 bitrate=N/A speed=19.2x    frame=24208 fps=460 q=-0.0 size=N/A time=00:16:49.67 bitrate=N/A speed=19.2x    frame=24431 fps=460 q=-0.0 size=N/A time=00:16:58.97 bitrate=N/A speed=19.2x    frame=24662 fps=460 q=-0.0 size=N/A time=00:17:08.61 bitrate=N/A speed=19.2x    frame=24849 fps=459 q=-0.0 size=N/A time=00:17:16.41 bitrate=N/A speed=19.1x    frame=25134 fps=459 q=-0.0 size=N/A time=00:17:28.29 bitrate=N/A speed=19.2x    frame=25343 fps=459 q=-0.0 size=N/A time=00:17:37.01 bitrate=N/A speed=19.1x    frame=25574 fps=459 q=-0.0 size=N/A time=00:17:46.64 bitrate=N/A speed=19.1x    frame=25802 fps=458 q=-0.0 size=N/A time=00:17:56.15 bitrate=N/A speed=19.1x    frame=25985 fps=458 q=-0.0 size=N/A time=00:18:03.79 bitrate=N/A speed=19.1x    frame=26239 fps=458 q=-0.0 size=N/A time=00:18:14.38 bitrate=N/A speed=19.1x    frame=26499 fps=458 q=-0.0 size=N/A time=00:18:25.22 bitrate=N/A speed=19.1x    frame=26781 fps=459 q=-0.0 size=N/A time=00:18:36.99 bitrate=N/A speed=19.1x    frame=27029 fps=459 q=-0.0 size=N/A time=00:18:47.33 bitrate=N/A speed=19.2x    frame=27296 fps=460 q=-0.0 size=N/A time=00:18:58.47 bitrate=N/A speed=19.2x    frame=27547 fps=460 q=-0.0 size=N/A time=00:19:08.93 bitrate=N/A speed=19.2x    frame=27797 fps=460 q=-0.0 size=N/A time=00:19:19.36 bitrate=N/A speed=19.2x    frame=28020 fps=460 q=-0.0 size=N/A time=00:19:28.66 bitrate=N/A speed=19.2x    frame=28284 fps=460 q=-0.0 size=N/A time=00:19:39.67 bitrate=N/A speed=19.2x    frame=28531 fps=461 q=-0.0 size=N/A time=00:19:49.98 bitrate=N/A speed=19.2x    frame=28749 fps=460 q=-0.0 size=N/A time=00:19:59.07 bitrate=N/A speed=19.2x    frame=29024 fps=461 q=-0.0 size=N/A time=00:20:10.54 bitrate=N/A speed=19.2x    frame=29282 fps=461 q=-0.0 size=N/A time=00:20:21.30 bitrate=N/A speed=19.2x    frame=29533 fps=461 q=-0.0 size=N/A time=00:20:31.77 bitrate=N/A speed=19.2x    frame=29815 fps=462 q=-0.0 size=N/A time=00:20:43.53 bitrate=N/A speed=19.3x    frame=30086 fps=462 q=-0.0 size=N/A time=00:20:54.83 bitrate=N/A speed=19.3x    frame=30369 fps=463 q=-0.0 size=N/A time=00:21:06.64 bitrate=N/A speed=19.3x    frame=30628 fps=463 q=-0.0 size=N/A time=00:21:17.44 bitrate=N/A speed=19.3x    frame=30864 fps=463 q=-0.0 size=N/A time=00:21:27.28 bitrate=N/A speed=19.3x    frame=31139 fps=464 q=-0.0 size=N/A time=00:21:38.75 bitrate=N/A speed=19.4x    frame=31382 fps=464 q=-0.0 size=N/A time=00:21:48.89 bitrate=N/A speed=19.4x    frame=31636 fps=464 q=-0.0 size=N/A time=00:21:59.48 bitrate=N/A speed=19.4x    frame=31890 fps=464 q=-0.0 size=N/A time=00:22:10.07 bitrate=N/A speed=19.4x    frame=32115 fps=464 q=-0.0 size=N/A time=00:22:19.46 bitrate=N/A speed=19.4x    frame=32351 fps=464 q=-0.0 size=N/A time=00:22:29.30 bitrate=N/A speed=19.4x    frame=32545 fps=463 q=-0.0 size=N/A time=00:22:37.39 bitrate=N/A speed=19.3x    frame=32731 fps=463 q=-0.0 size=N/A time=00:22:45.15 bitrate=N/A speed=19.3x    frame=32957 fps=463 q=-0.0 size=N/A time=00:22:54.58 bitrate=N/A speed=19.3x    frame=33168 fps=462 q=-0.0 size=N/A time=00:23:03.38 bitrate=N/A speed=19.3x    frame=33340 fps=461 q=-0.0 size=N/A time=00:23:10.55 bitrate=N/A speed=19.2x    frame=33532 fps=461 q=-0.0 size=N/A time=00:23:18.56 bitrate=N/A speed=19.2x    frame=33724 fps=460 q=-0.0 size=N/A time=00:23:26.57 bitrate=N/A speed=19.2x    frame=33901 fps=459 q=-0.0 size=N/A time=00:23:33.95 bitrate=N/A speed=19.2x    frame=34078 fps=458 q=-0.0 size=N/A time=00:23:41.33 bitrate=N/A speed=19.1x    frame=34215 fps=457 q=-0.0 size=N/A time=00:23:47.05 bitrate=N/A speed=19.1x    frame=34357 fps=456 q=-0.0 size=N/A time=00:23:52.97 bitrate=N/A speed=  19x    frame=34550 fps=455 q=-0.0 size=N/A time=00:24:01.02 bitrate=N/A speed=  19x    [Parsed_psnr_10 @ 000001a5fcef9680] PSNR y:47.511527 u:49.442202 v:49.673347 average:48.092282 min:37.690439 max:inf
[out#0/null @ 000001a5fc7d06c0] video:14878KiB audio:270788KiB subtitle:0KiB other streams:0KiB global headers:0KiB muxing overhead: unknown
frame=34624 fps=456 q=-0.0 Lsize=N/A time=00:24:04.10 bitrate=N/A speed=  19x    
